<svg height="512" viewBox="0 0 58 60" width="512" xmlns="http://www.w3.org/2000/svg"><g id="Page-1" fill="none" fill-rule="evenodd"><g id="036---Big-Data" fill="rgb(0,0,0)" fill-rule="nonzero"><circle id="Oval" cx="15" cy="6" r="1"/><circle id="Oval" cx="19" cy="6" r="1"/><path id="Shape" d="m31 7h12c.5522847 0 1-.44771525 1-1s-.4477153-1-1-1h-12c-.5522847 0-1 .44771525-1 1s.4477153 1 1 1z"/><circle id="Oval" cx="15" cy="20" r="1"/><circle id="Oval" cx="19" cy="20" r="1"/><path id="Shape" d="m31 21h12c.5522847 0 1-.4477153 1-1s-.4477153-1-1-1h-12c-.5522847 0-1 .4477153-1 1s.4477153 1 1 1z"/><circle id="Oval" cx="15" cy="34" r="1"/><circle id="Oval" cx="19" cy="34" r="1"/><path id="Shape" d="m43 33h-12c-.5522847 0-1 .4477153-1 1s.4477153 1 1 1h12c.5522847 0 1-.4477153 1-1s-.4477153-1-1-1z"/><path id="Shape" d="m44 46c-1.1045695 0-2 .8954305-2 2v10c0 1.1045695.8954305 2 2 2h12c1.1045695 0 2-.8954305 2-2v-10c0-1.1045695-.8954305-2-2-2h-5v-2c0-1.1045695-.8954305-2-2-2h-19v-2h15c1.6568542 0 3-1.3431458 3-3v-6c-.0052514-1.2667854-.8056491-2.3937454-2-2.816v-2.368c1.1943509-.4222546 1.9947486-1.5492146 2-2.816v-6c-.0052514-1.2667854-.8056491-2.3937454-2-2.816v-2.368c1.1943509-.4222546 1.9947486-1.5492146 2-2.816v-6c0-1.65685425-1.3431458-3-3-3h-32c-1.6568542 0-3 1.34314575-3 3v6c.0052514 1.2667854.8056491 2.3937454 2 2.816v2.368c-1.1943509.4222546-1.9947486 1.5492146-2 2.816v6c.0052514 1.2667854.8056491 2.3937454 2 2.816v2.368c-1.1943509.4222546-1.9947486 1.5492146-2 2.816v6c0 1.6568542 1.3431458 3 3 3h15v2h-19c-1.1045695 0-2 .8954305-2 2v2h-5c-1.1045695 0-2 .8954305-2 2v10c0 1.1045695.8954305 2 2 2h12c1.1045695 0 2-.8954305 2-2v-10c0-1.1045695-.8954305-2-2-2h-5v-2h19v2h-5c-1.1045695 0-2 .8954305-2 2v10c0 1.1045695.8954305 2 2 2h12c1.1045695 0 2-.8954305 2-2v-10c0-1.1045695-.8954305-2-2-2h-5v-2h19v2zm-30-20h30v2h-30zm0-14h30v2h-30zm-2-9c0-.55228475.4477153-1 1-1h32c.5522847 0 1 .44771525 1 1v6c0 .55228475-.4477153 1-1 1h-32c-.5522847 0-1-.44771525-1-1zm0 14c0-.5522847.4477153-1 1-1h32c.5522847 0 1 .4477153 1 1v6c0 .5522847-.4477153 1-1 1h-32c-.5522847 0-1-.4477153-1-1zm0 20v-6c0-.5522847.4477153-1 1-1h32c.5522847 0 1 .4477153 1 1v6c0 .5522847-.4477153 1-1 1h-32c-.5522847 0-1-.4477153-1-1zm-2 21h-4v-3h4zm4 0h-2v-3c0-1.1045695-.8954305-2-2-2h-4c-1.1045695 0-2 .8954305-2 2v3h-2v-10h8v1c0 .5522847.4477153 1 1 1s1-.4477153 1-1v-1h2zm17 0h-4v-3h4zm4 0h-2v-3c0-1.1045695-.8954305-2-2-2h-4c-1.1045695 0-2 .8954305-2 2v3h-2v-10h8v1c0 .5522847.4477153 1 1 1s1-.4477153 1-1v-1h2zm17 0h-4v-3h4zm4 0h-2v-3c0-1.1045695-.8954305-2-2-2h-4c-1.1045695 0-2 .8954305-2 2v3h-2v-10h8v1c0 .5522847.4477153 1 1 1s1-.4477153 1-1v-1h2z"/></g></g></svg>