<svg id="icons" enable-background="new 0 0 64 64" height="512" viewBox="0 0 64 64" width="512" xmlns="http://www.w3.org/2000/svg"><path d="m42.03 36.994h-.01c-.552 0-.994.447-.994 1s.452 1 1.005 1c.552 0 1-.447 1-1s-.449-1-1.001-1z"/><path d="m47.851 32.495c-.02-.033-.025-.07-.049-.102l-3-4c-.014-.019-.035-.027-.05-.045-.047-.055-.101-.098-.158-.141-.049-.037-.095-.073-.147-.1-.057-.028-.115-.044-.177-.062-.067-.019-.131-.035-.2-.04-.023-.002-.044-.014-.067-.014h-24.005c-.024 0-.045.013-.069.014-.067.005-.131.021-.196.04-.063.018-.122.033-.179.062-.054.027-.099.063-.147.1-.058.043-.111.086-.158.141-.015.018-.036.026-.05.045l-3 4c-.023.031-.029.068-.049.102-.035.06-.066.119-.089.187-.021.065-.032.131-.04.199-.004.038-.022.072-.022.112v10.002 10.002 10.002c0 .553.447 1 1 1h30.004c.553 0 1-.447 1-1v-10.002-10.002-10.002c0-.04-.019-.074-.022-.112-.008-.068-.019-.134-.04-.199-.024-.068-.055-.127-.09-.187zm-27.353-2.502h23.004l1.5 2h-26.004zm-2.5 4h28.004v8.002h-28.004zm0 10.002h28.004v8.002h-28.004zm28.004 18.004h-28.004v-8.002h28.004z"/><path d="m22.291 36.287-2 2c-.391.391-.391 1.023 0 1.414.195.195.451.293.707.293s.512-.098.707-.293l2-2c.391-.391.391-1.023 0-1.414s-1.023-.391-1.414 0z"/><path d="m27.291 36.287-2 2c-.391.391-.391 1.023 0 1.414.195.195.451.293.707.293s.512-.098.707-.293l2-2c.391-.391.391-1.023 0-1.414s-1.023-.391-1.414 0z"/><path d="m32.291 36.287-2 2c-.391.391-.391 1.023 0 1.414.195.195.451.293.707.293s.512-.098.707-.293l2-2c.391-.391.391-1.023 0-1.414s-1.023-.391-1.414 0z"/><path d="m42.03 46.996h-.01c-.552 0-.994.447-.994 1s.452 1 1.005 1c.552 0 1-.447 1-1s-.449-1-1.001-1z"/><path d="m22.291 46.289-2 2c-.391.391-.391 1.023 0 1.414.195.195.451.293.707.293s.512-.098.707-.293l2-2c.391-.391.391-1.023 0-1.414s-1.023-.391-1.414 0z"/><path d="m27.291 46.289-2 2c-.391.391-.391 1.023 0 1.414.195.195.451.293.707.293s.512-.098.707-.293l2-2c.391-.391.391-1.023 0-1.414s-1.023-.391-1.414 0z"/><path d="m32.291 46.289-2 2c-.391.391-.391 1.023 0 1.414.195.195.451.293.707.293s.512-.098.707-.293l2-2c.391-.391.391-1.023 0-1.414s-1.023-.391-1.414 0z"/><path d="m42.03 58.998c.552 0 1-.447 1-1s-.448-1-1-1h-.01c-.552 0-.994.447-.994 1s.452 1 1.004 1z"/><path d="m20.998 59.998c.256 0 .512-.098.707-.293l2-2c.391-.391.391-1.023 0-1.414s-1.023-.391-1.414 0l-2 2c-.391.391-.391 1.023 0 1.414.195.195.451.293.707.293z"/><path d="m25.998 59.998c.256 0 .512-.098.707-.293l2-2c.391-.391.391-1.023 0-1.414s-1.023-.391-1.414 0l-2 2c-.391.391-.391 1.023 0 1.414.195.195.451.293.707.293z"/><path d="m30.998 59.998c.256 0 .512-.098.707-.293l2-2c.391-.391.391-1.023 0-1.414s-1.023-.391-1.414 0l-2 2c-.391.391-.391 1.023 0 1.414.195.195.451.293.707.293z"/><path d="m23 14.002h18c.553 0 1-.447 1-1s-.447-1-1-1h-18c-.553 0-1 .447-1 1s.447 1 1 1z"/><path d="m50 18.001v-7.999c0-.553-.447-1-1-1h-2v-1.001c0-2.206-1.794-4-4-4h-5v-3c0-.553-.447-1-1-1h-10c-.553 0-1 .447-1 1v3h-5c-2.206 0-4 1.794-4 4v1.001h-2c-.553 0-1 .447-1 1v7.999c0 .553.447 1 1 1h2v1.999c0 2.206 1.794 4 4 4h8.999c.151 0 .291-.039.42-.099.009-.005.019-.003.027-.007l1.554-.776 1.552.776c.009.004.019.002.027.007.129.06.269.099.42.099h9.001c2.206 0 4-1.794 4-4v-1.999h2c.553 0 1-.447 1-1zm-2-6.999v5.999h-1v-5.999zm-20-9.001h8v2h-8zm-9 6c0-1.103.897-2 2-2h22c1.103 0 2 .897 2 2v10.001c0 1.103-.897 2-2 2h-8.765l-1.788-.895c-.281-.141-.613-.141-.895 0l-1.79.895h-8.762c-1.103 0-2-.897-2-2zm-2 9h-1v-5.999h1zm2.065 4.48c.575.321 1.229.521 1.935.521h7.999v.998h-7.999c-.936 0-1.718-.649-1.935-1.519zm12.488.624-.554.276v-.761l1.001-.5.999.5v.762l-.552-.276c-.281-.141-.613-.141-.894-.001zm11.447.895h-8.001v-.998h8.001c.705 0 1.359-.199 1.935-.521-.217.87-.999 1.519-1.935 1.519z"/><path d="m50.003 49.009h6c.553 0 1-.447 1-1v-35.007c0-.553-.447-1-1-1h-4c-.553 0-1 .447-1 1s.447 1 1 1h3v33.007h-5c-.553 0-1 .447-1 1s.447 1 1 1z"/><path d="m6.997 12.995v35.007c0 .553.447 1 1 1h6.002c.553 0 1-.447 1-1s-.447-1-1-1h-5.002v-33.007h2.998c.553 0 1-.447 1-1s-.447-1-1-1h-3.998c-.553 0-1 .447-1 1z"/></svg>